<svg xmlns="http://www.w3.org/2000/svg" viewBox="0 0 900 620"><defs><linearGradient id="g" x1="0" x2="1" y1="0" y2="1"><stop stop-color="#eef7ff"/><stop offset="1" stop-color="#dbeafe"/></linearGradient><filter id="s"><feDropShadow dx="0" dy="18" stdDeviation="18" flood-opacity=".18"/></filter></defs><rect width="900" height="620" rx="48" fill="url(#g)"/><circle cx="720" cy="120" r="150" fill="#bfdbfe" opacity=".55"/><circle cx="165" cy="500" r="105" fill="#bbf7d0" opacity=".55"/><g filter="url(#s)" transform="translate(160 150)"><path d="M95 30h360c65 0 118 53 118 118v20c0 152-123 275-275 275h-93c-96 0-175-78-175-175V95c0-36 29-65 65-65z" fill="#1f2937"/><path d="M120 72h320c41 0 75 34 75 75v14c0 120-97 217-217 217h-78c-75 0-136-61-136-136V108c0-20 16-36 36-36z" fill="#374151"/><path d="M155 118h310c20 0 36 16 36 36 0 86-70 156-156 156H222c-56 0-102-46-102-102v-55c0-19 16-35 35-35z" fill="#fb923c"/><circle cx="210" cy="207" r="34" fill="#111827"/><circle cx="390" cy="207" r="34" fill="#111827"/></g><text x="60" y="90" font-family="Arial, sans-serif" font-size="38" font-weight="800" fill="#0f172a">Brake Pad</text><text x="60" y="130" font-family="Arial, sans-serif" font-size="22" fill="#475569">OBDTR / HBS product visual</text></svg>
