<svg xmlns="http://www.w3.org/2000/svg" viewBox="0 0 900 620"><defs><linearGradient id="g" x1="0" x2="1" y1="0" y2="1"><stop stop-color="#fff7ed"/><stop offset="1" stop-color="#fee2e2"/></linearGradient><filter id="s"><feDropShadow dx="0" dy="18" stdDeviation="18" flood-opacity=".16"/></filter></defs><rect width="900" height="620" rx="48" fill="url(#g)"/><circle cx="735" cy="115" r="145" fill="#fed7aa" opacity=".65"/><circle cx="175" cy="505" r="110" fill="#fecaca" opacity=".55"/><g filter="url(#s)" transform="translate(220 130) rotate(-18 230 180)"><g><rect x="100" y="35" width="65" height="300" rx="25" fill="#f8fafc"/><rect x="106" y="145" width="53" height="115" rx="10" fill="#d1d5db"/><path d="M110 335h45l-11 58h-23z" fill="#111827"/><path d="M117 25h31l12 34h-55z" fill="#9ca3af"/><rect x="195" y="35" width="65" height="300" rx="25" fill="#f8fafc"/><rect x="201" y="145" width="53" height="115" rx="10" fill="#d1d5db"/><path d="M205 335h45l-11 58h-23z" fill="#111827"/><path d="M212 25h31l12 34h-55z" fill="#9ca3af"/><rect x="290" y="35" width="65" height="300" rx="25" fill="#f8fafc"/><rect x="296" y="145" width="53" height="115" rx="10" fill="#d1d5db"/><path d="M300 335h45l-11 58h-23z" fill="#111827"/><path d="M307 25h31l12 34h-55z" fill="#9ca3af"/></g></g><text x="60" y="90" font-family="Arial, sans-serif" font-size="38" font-weight="800" fill="#0f172a">Spark Plug Set</text><text x="60" y="130" font-family="Arial, sans-serif" font-size="22" fill="#475569">OBDTR / HBS product visual</text></svg>
